<svg width="18" height="18" viewBox="0 0 18 18" fill="none" xmlns="http://www.w3.org/2000/svg">
<path d="M6.25866 5.42508L8.16699 3.50841V11.5001C8.16699 11.7211 8.25479 11.9331 8.41107 12.0893C8.56735 12.2456 8.77931 12.3334 9.00033 12.3334C9.22134 12.3334 9.4333 12.2456 9.58958 12.0893C9.74586 11.9331 9.83366 11.7211 9.83366 11.5001V3.50841L11.742 5.42508C11.8195 5.50318 11.9116 5.56518 12.0132 5.60749C12.1147 5.64979 12.2236 5.67158 12.3337 5.67158C12.4437 5.67158 12.5526 5.64979 12.6541 5.60749C12.7557 5.56518 12.8479 5.50318 12.9253 5.42508C13.0034 5.34761 13.0654 5.25544 13.1077 5.15389C13.15 5.05234 13.1718 4.94342 13.1718 4.83341C13.1718 4.7234 13.15 4.61448 13.1077 4.51293C13.0654 4.41138 13.0034 4.31921 12.9253 4.24174L9.59199 0.90841C9.51274 0.832543 9.41928 0.773072 9.31699 0.73341C9.11411 0.650061 8.88654 0.650061 8.68366 0.73341C8.58137 0.773072 8.48791 0.832543 8.40866 0.90841L5.07533 4.24174C4.99763 4.31944 4.93599 4.41168 4.89394 4.5132C4.85189 4.61472 4.83025 4.72353 4.83025 4.83341C4.83025 4.94329 4.85189 5.0521 4.89394 5.15362C4.93599 5.25514 4.99763 5.34738 5.07533 5.42508C5.15302 5.50278 5.24527 5.56441 5.34678 5.60646C5.4483 5.64851 5.55711 5.67015 5.66699 5.67015C5.77687 5.67015 5.88568 5.64851 5.9872 5.60646C6.08872 5.56441 6.18096 5.50278 6.25866 5.42508ZM16.5003 10.6667C16.2793 10.6667 16.0673 10.7545 15.9111 10.9108C15.7548 11.0671 15.667 11.2791 15.667 11.5001V14.8334C15.667 15.0544 15.5792 15.2664 15.4229 15.4227C15.2666 15.5789 15.0547 15.6667 14.8337 15.6667H3.16699C2.94598 15.6667 2.73402 15.5789 2.57774 15.4227C2.42146 15.2664 2.33366 15.0544 2.33366 14.8334V11.5001C2.33366 11.2791 2.24586 11.0671 2.08958 10.9108C1.9333 10.7545 1.72134 10.6667 1.50033 10.6667C1.27931 10.6667 1.06735 10.7545 0.91107 10.9108C0.75479 11.0671 0.666992 11.2791 0.666992 11.5001V14.8334C0.666992 15.4965 0.930384 16.1323 1.39923 16.6012C1.86807 17.07 2.50395 17.3334 3.16699 17.3334H14.8337C15.4967 17.3334 16.1326 17.07 16.6014 16.6012C17.0703 16.1323 17.3337 15.4965 17.3337 14.8334V11.5001C17.3337 11.2791 17.2459 11.0671 17.0896 10.9108C16.9333 10.7545 16.7213 10.6667 16.5003 10.6667Z" fill="#247B7B"/>
</svg>
