<svg width="24" height="24" viewBox="0 0 24 24" fill="none" xmlns="http://www.w3.org/2000/svg">
<path d="M12 2C17.523 2 22 6.477 22 12C22 17.523 17.523 22 12 22C6.477 22 2 17.523 2 12C2 6.477 6.477 2 12 2ZM12 4C9.87827 4 7.84344 4.84285 6.34315 6.34315C4.84285 7.84344 4 9.87827 4 12C4 14.1217 4.84285 16.1566 6.34315 17.6569C7.84344 19.1571 9.87827 20 12 20C14.1217 20 16.1566 19.1571 17.6569 17.6569C19.1571 16.1566 20 14.1217 20 12C20 9.87827 19.1571 7.84344 17.6569 6.34315C16.1566 4.84285 14.1217 4 12 4ZM12 5C13.018 5 13.985 5.217 14.858 5.608L13.295 7.17C12.2316 6.88434 11.1036 6.95772 10.0861 7.37875C9.06863 7.79978 8.2186 8.54491 7.66796 9.49848C7.11731 10.452 6.89685 11.5607 7.04079 12.6524C7.18473 13.7441 7.68501 14.7577 8.464 15.536L7.05 16.95L6.894 16.789C5.95983 15.7931 5.33732 14.5457 5.10315 13.2005C4.86897 11.8553 5.03335 10.4709 5.57604 9.21793C6.11873 7.96494 7.01603 6.89803 8.15744 6.14858C9.29885 5.39914 10.6345 4.99989 12 5ZM18.392 9.143C18.782 10.015 19 10.983 19 12C19.001 12.9194 18.8205 13.83 18.4687 14.6795C18.1169 15.5289 17.6008 16.3005 16.95 16.95L15.536 15.536C16.1575 14.9157 16.6044 14.1424 16.8316 13.2942C17.0588 12.446 17.0583 11.5529 16.83 10.705L18.392 9.143ZM16.242 6.343L17.657 7.757L13.933 11.483C14.0119 11.7793 14.0216 12.0899 13.9615 12.3906C13.9014 12.6913 13.773 12.9742 13.5862 13.2174C13.3994 13.4606 13.1592 13.6577 12.8842 13.7934C12.6092 13.9291 12.3067 13.9998 12 14C11.7157 13.9995 11.4347 13.9383 11.1758 13.8206C10.917 13.7029 10.6862 13.5314 10.4989 13.3175C10.3116 13.1035 10.1721 12.8521 10.0896 12.58C10.0072 12.3078 9.98368 12.0213 10.0207 11.7393C10.0578 11.4574 10.1545 11.1866 10.3045 10.9451C10.4545 10.7035 10.6543 10.4967 10.8905 10.3384C11.1268 10.1802 11.394 10.0741 11.6745 10.0273C11.955 9.98048 12.2422 9.99402 12.517 10.067L16.242 6.343Z" fill="#247B7B"/>
</svg>
